<svg xmlns="http://www.w3.org/2000/svg" xmlns:xlink="http://www.w3.org/1999/xlink" viewBox="0 0 800 800"><defs><style>.b3098168-8155-4b85-ae04-0c6b367563da{fill:#f7f8f8;}.fb6ff4b5-6eea-4b54-a85b-96564a38502c{fill:#001d2e;}.be2a389f-1df9-43ea-946a-457e28b01332{fill:#feb203;}.a8d887cc-5767-44ec-aad6-75dd34663fd1{fill:url(#bd5c09cf-cadd-43de-ae76-989f230f6484);}.a20e22ed-e8f6-424e-b03b-d4494e51f1fa{fill:url(#eac311ef-2a47-4a1b-9fb3-1be1ee136633);}.eedc549b-787f-4611-9dd4-f1afa70d38be{fill:url(#ace9752c-f5f7-42cb-90f0-4f8a611aa2d5);}.ac50f652-9690-4eb5-b248-836a12431e45{fill:url(#a5a8fb6a-0209-455d-b73b-a2fc741a0502);}.fe508bef-d06e-4955-b521-77e1fee49557{fill:url(#a94cada8-5a82-49e1-bd40-0d63d02e0a21);}</style><linearGradient id="bd5c09cf-cadd-43de-ae76-989f230f6484" x1="400" y1="153.72" x2="400" y2="466.61" gradientUnits="userSpaceOnUse"><stop offset="0" stop-color="#f9d546"/><stop offset="1" stop-color="#feb203"/></linearGradient><linearGradient id="eac311ef-2a47-4a1b-9fb3-1be1ee136633" x1="400" y1="374.82" x2="400" y2="916.46" gradientUnits="userSpaceOnUse"><stop offset="0" stop-color="#f9d546"/><stop offset="0.77" stop-color="#feb203"/></linearGradient><linearGradient id="ace9752c-f5f7-42cb-90f0-4f8a611aa2d5" x1="266.08" y1="271.91" x2="486.63" y2="271.91" gradientUnits="userSpaceOnUse"><stop offset="0.02" stop-color="#f7f8f8"/><stop offset="0.18" stop-color="#d8e7e4"/><stop offset="0.39" stop-color="#b3d3cc"/><stop offset="0.5" stop-color="#a5cbc3"/></linearGradient><linearGradient id="a5a8fb6a-0209-455d-b73b-a2fc741a0502" x1="403.17" y1="60.37" x2="403.17" y2="137.5" gradientUnits="userSpaceOnUse"><stop offset="0" stop-color="#f9d546"/><stop offset="0.54" stop-color="#feb203"/></linearGradient><linearGradient id="a94cada8-5a82-49e1-bd40-0d63d02e0a21" x1="-3552.95" y1="180.43" x2="-3552.95" y2="154.75" gradientTransform="matrix(-1, 0, 0, 1, -3149.79, 0)" xlink:href="#a5a8fb6a-0209-455d-b73b-a2fc741a0502"/></defs><g id="a8fc1823-fed6-43dd-bcc9-4ad73cf572a5" data-name="SQ Icon Black"><g id="a6265a28-3f94-4d66-8ba3-5c739f8705cb" data-name="Authman"><g id="ee8ddf76-bc83-4fcd-8f15-7391e59c7355" data-name="Shield"><path id="b95ee492-9081-4d55-8383-af696650044f" data-name="Shell outside" class="b3098168-8155-4b85-ae04-0c6b367563da" d="M400,769.09c-61.7,0-119-23.74-161.6-52.41s-112.09-120.55-112.09-200V185.61c0-25.32,18.8-32.84,27.52-38.28S263.15,88.92,400,88.92s237.45,53,246.17,58.41,27.52,13,27.52,38.28V516.7c0,79.43-69.52,171.31-112.09,200S461.7,769.09,400,769.09Z"/><path id="a78e7d40-3673-4f5b-8941-b05c653b4706" data-name="Shell outside" class="fb6ff4b5-6eea-4b54-a85b-96564a38502c" d="M400,88.92c136.85,0,237.45,53,246.17,58.41s27.52,13,27.52,38.28V516.7c0,79.43-69.52,171.31-112.09,200S461.7,769.09,400,769.09s-119-23.74-161.6-52.41-112.09-120.55-112.09-200V185.61c0-25.32,18.8-32.84,27.52-38.28S263.15,88.92,400,88.92M400,75C342,75,281.3,84.63,224.61,102.84c-44.09,14.16-72.86,29.38-78.15,32.69-.79.49-1.83,1.09-2.94,1.72-10.1,5.81-31.13,17.9-31.13,48.36V516.7c0,26.73,7.32,70.35,42.19,126.38,22.41,36,51.55,68.65,76,85.14C261,748.68,323.4,783,400,783s139-34.32,169.37-54.78c24.5-16.49,53.64-49.12,76-85.14,34.87-56,42.19-99.65,42.19-126.38V185.61c0-30.46-21-42.55-31.13-48.36-1.11-.63-2.15-1.23-2.94-1.72-5.29-3.31-34.06-18.53-78.15-32.69C518.7,84.63,458.05,75,400,75Z"/><path id="af7a376b-4984-4e58-b8c5-e8d9777f2ee6" data-name="Shell inside" class="be2a389f-1df9-43ea-946a-457e28b01332" d="M400,728.17c-53.51,0-103.24-21-140.16-46.48s-97.22-106.93-97.22-177.38V210.65c0-22.47,16.31-29.13,23.87-34S281.31,124.88,400,124.88s206,47,213.51,51.81,23.87,11.49,23.87,34V504.31c0,70.45-60.3,152-97.22,177.38S453.51,728.17,400,728.17Z"/><path id="a17f28a3-d26f-4c14-9bb0-74338e4cba58" data-name="Shell inside" class="a8d887cc-5767-44ec-aad6-75dd34663fd1" d="M400,697.34c-46.69,0-90.07-18.9-122.28-41.73s-84.82-96-84.82-159.25V232.71c0-20.17,14.23-26.16,20.82-30.49S296.45,155.71,400,155.71s179.68,42.18,186.28,46.51,20.82,10.32,20.82,30.49V496.36c0,63.25-52.6,136.42-84.82,159.25S446.69,697.34,400,697.34Z"/></g><g id="ee0afe21-807b-4051-bbe8-92e219e2c4c0" data-name="Suit"><path class="a20e22ed-e8f6-424e-b03b-d4494e51f1fa" d="M403.17,306.4,192.9,380.76v115.6c0,63.25,52.6,136.42,84.82,159.25S353.31,697.34,400,697.34s90.07-18.9,122.28-41.73,84.82-96,84.82-159.25V379.3Z"/><path class="b3098168-8155-4b85-ae04-0c6b367563da" d="M489.45,354,434.89,553.41l-20.74-99.36s13.47-8,14.55-22.93-8.36-19.28-11.65-21.47-13.88-3.27-13.88-3.27-10.62,1.09-13.9,3.27-12.73,6.56-11.65,21.47,14.56,22.93,14.56,22.93l-20.74,99.36L316.87,354l1.08-5.82,2.64-3.42A183,183,0,0,0,346,366c30.82,21.74,54.86,20.19,54.86,20.19s24,1.55,54.87-20.19c13.13-9.27,22-17.51,27.93-23.91l4.72,6.08Z"/><path class="fb6ff4b5-6eea-4b54-a85b-96564a38502c" d="M575.73,491.9c0,1.46-1.45,4.73-1.45,4.73l-42.95,41.85-18.92-17.1,32-28,3.35-5.89L498.58,398,413.06,704.07l-9.89,4-9.89-4L307.75,398l-49.22,89.46,3.37,5.89,32,28L275,538.48l-42.94-41.85s-1.46-3.27-1.46-4.73,1.46-4,1.46-4L296.1,359.06s4.73-17.1,6.55-20.37c.81-1.46,3.41-5.06,6.06-8.63,3.31-4.46,6.68-8.84,6.68-8.84l11.28,15.65-6.08,7.86L318,348.15,316.87,354l54.57,199.44,20.74-99.36s-13.46-8-14.56-22.93,8.38-19.28,11.65-21.47,13.9-3.27,13.9-3.27,10.61,1.09,13.88,3.27,12.75,6.56,11.65,21.47-14.55,22.93-14.55,22.93l20.74,99.36L489.45,354l-1.06-5.82-4.72-6.08-4-5.2,11.29-15.65,3.2,4.18c3.37,4.47,8.36,11.16,9.53,13.29,1.82,3.27,6.55,20.37,6.55,20.37l64.06,128.85S575.73,490.45,575.73,491.9Z"/></g><g id="fb6e4dfc-d5e1-4499-b9dd-e0c43255ce0e" data-name="Face"><path class="fb6ff4b5-6eea-4b54-a85b-96564a38502c" d="M518.29,235.7c-4.49,8.91-22.75,20.55-22.75,20.55l-1.4,69.15-.06,2.79s-2.47,5.28-10.41,13.88c-5.89,6.4-14.8,14.64-27.93,23.91-30.84,21.74-54.87,20.19-54.87,20.19s-24,1.55-54.86-20.19a183,183,0,0,1-25.42-21.25,85,85,0,0,1-11.88-14.67c-.74-1.22-1-1.87-1-1.87l-1.46-71.94s-18.27-11.64-22.76-20.55c.33-4.49-.72-45.32,0-47.7s8.81-11,8.81-11-1.1-67.82.36-79.92,6.89-33.3,36.61-57.79,68-21.37,71.65-22.29c3.62.92,41.93-2.21,71.65,22.29S507.66,85,509.14,97.08s.36,79.92.36,79.92,8.07,8.61,8.79,11S518,231.21,518.29,235.7Z"/><path class="eedc549b-787f-4611-9dd4-f1afa70d38be" d="M403.17,360.08c-13.53,0-24.7-3.46-30.7-6.74s-17.29-9.28-31.48-30-16.74-139.57-16.74-139.57l78.92,43.85,78.91-43.85s-2.54,118.82-16.74,139.57-25.47,26.75-31.48,30S416.69,360.08,403.17,360.08Z"/><path class="b3098168-8155-4b85-ae04-0c6b367563da" d="M403.17,224.78s22.62.36,34.27,0S468,218.59,468,218.59s.31,40.59-8.21,72.52S442,330.68,431.25,337.23s-15.41,6.55-28.08,6.55-25.78-1.09-34.88-7.64-20.74-24.38-26.2-39.31-13.83-44-14.2-63.32,0-25.48,0-25.48,20,9.47,33.49,12.74S403.17,224.78,403.17,224.78Z"/><rect class="fb6ff4b5-6eea-4b54-a85b-96564a38502c" x="389.92" y="211.67" width="24.95" height="74.61"/><rect class="fb6ff4b5-6eea-4b54-a85b-96564a38502c" x="389.92" y="300.84" width="24.95" height="5.82"/></g><g id="aa29bb24-ad97-4cbe-a279-dc1b39b42476" data-name="Hat"><path class="b3098168-8155-4b85-ae04-0c6b367563da" d="M403.17,129.65c4.67,0-13.15-1.12-25.78,2.39S322,157.36,322,157.36s-3.86,2.57-3.85-1.38-.18-45.68.74-52.75S322,75,348.4,54.06s54.77-18.17,54.77-18.17,28.34-2.75,54.76,18.17,28.63,42.11,29.54,49.17.72,48.81.74,52.75-3.85,1.38-3.85,1.38S441.58,135.55,428.94,132,398.49,129.65,403.17,129.65Z"/><path class="ac50f652-9690-4eb5-b248-836a12431e45" d="M403.17,54c-2.2-.1-33.86-.68-54.59,14.36S319.41,102,318.49,109.1s-.35,42.94-.37,46.88,3.85,1.38,3.85,1.38,42.78-21.81,55.42-25.32a83.11,83.11,0,0,1,25.78-2.39h0A83.13,83.13,0,0,1,429,132c12.63,3.51,55.41,25.32,55.41,25.32s3.87,2.57,3.85-1.38.55-39.81-.37-46.88-9.35-25.68-30.09-40.73S405.36,53.91,403.17,54"/><circle class="b3098168-8155-4b85-ae04-0c6b367563da" cx="403.17" cy="95.25" r="25.05"/><path class="fe508bef-d06e-4955-b521-77e1fee49557" d="M403.16,202.61a15.29,15.29,0,0,1-7.14-1.46L338.8,172.4s41.53-18.94,46.29-20.38,18.07-2.48,18.07-2.48h0s13.3,1.05,18.06,2.48,46.3,20.38,46.3,20.38l-57.22,28.75a15.34,15.34,0,0,1-7.14,1.46"/></g><g id="bec46b13-6bbe-4bad-ad86-36a6f0986c9b" data-name="Card"><rect class="fb6ff4b5-6eea-4b54-a85b-96564a38502c" x="496.28" y="551.32" width="93.53" height="66.6" rx="12"/><rect class="b3098168-8155-4b85-ae04-0c6b367563da" x="513.75" y="568.61" width="60.6" height="31.48" rx="2"/><rect class="fb6ff4b5-6eea-4b54-a85b-96564a38502c" x="520.66" y="577.89" width="44.58" height="13.83" rx="1"/></g></g></g></svg>