<svg xmlns="http://www.w3.org/2000/svg" xmlns:xlink="http://www.w3.org/1999/xlink" viewBox="0 0 1000 350"><defs><style>.a7afa5ec-ef6f-4e41-864a-5bfdf90c96db{fill:#f7f8f8;}.eb8e9a65-4ebb-4a9b-a36e-cbcb663f8059{fill:#001d2e;}.f930e1ac-4b1b-448d-98e4-9df71b3577e9{fill:#feb203;}.b47e2c51-ab87-4fe8-a197-9e5e54c061f2{fill:url(#e86c2898-7a38-4d1c-9f62-a9544eae8819);}.ad3c38a2-6607-4d3a-90a5-7efc73bcb678{fill:url(#eb83d5e6-9696-441b-b974-5808c06f642f);}.fd97e2d3-d9d0-4e69-91d5-f295bc796249{fill:url(#a8569046-3f26-4913-a76a-e5ca0ae741b0);}.bd4e2527-e57c-4a83-bf86-82d9893bd6d8{fill:url(#ed11a9de-a53f-49e9-a060-d4f22597fcf8);}.b736e52f-c205-4d57-a85f-dd25b24891cf{fill:url(#fb2167b6-d8e1-42fc-9732-5d9e6af51873);}.f4a4f808-e9b3-4ee0-812d-2b87617c73e4{fill:#fec52b;}</style><linearGradient id="e86c2898-7a38-4d1c-9f62-a9544eae8819" x1="153.61" y1="106.21" x2="153.61" y2="196.37" gradientUnits="userSpaceOnUse"><stop offset="0" stop-color="#f9d546"/><stop offset="1" stop-color="#feb203"/></linearGradient><linearGradient id="eb83d5e6-9696-441b-b974-5808c06f642f" x1="153.61" y1="169.92" x2="153.61" y2="326.01" gradientUnits="userSpaceOnUse"><stop offset="0" stop-color="#f9d546"/><stop offset="0.77" stop-color="#feb203"/></linearGradient><linearGradient id="a8569046-3f26-4913-a76a-e5ca0ae741b0" x1="115.02" y1="140.27" x2="178.58" y2="140.27" gradientUnits="userSpaceOnUse"><stop offset="0.02" stop-color="#f7f8f8"/><stop offset="0.18" stop-color="#d8e7e4"/><stop offset="0.39" stop-color="#b3d3cc"/><stop offset="0.5" stop-color="#a5cbc3"/></linearGradient><linearGradient id="ed11a9de-a53f-49e9-a060-d4f22597fcf8" x1="154.53" y1="79.3" x2="154.53" y2="101.53" gradientUnits="userSpaceOnUse"><stop offset="0" stop-color="#f9d546"/><stop offset="0.54" stop-color="#feb203"/></linearGradient><linearGradient id="fb2167b6-d8e1-42fc-9732-5d9e6af51873" x1="-5608.08" y1="113.9" x2="-5608.08" y2="106.5" gradientTransform="matrix(-1, 0, 0, 1, -5453.56, 0)" xlink:href="#ed11a9de-a53f-49e9-a060-d4f22597fcf8"/></defs><g id="ad63e69f-1b76-4563-a6a4-7b3f2cd96b90" data-name="H Colorful B"><g id="ffd40a85-94ee-446e-ab5a-1ff9b3ac3d94" data-name="Authman"><g id="e10102f0-1a1c-41b0-b9db-0cd0681772e7" data-name="Shield"><path id="ed5b899c-dff9-4d75-bc56-b86587e424a2" data-name="Shell outside" class="a7afa5ec-ef6f-4e41-864a-5bfdf90c96db" d="M153.61,283.54c-17.78,0-34.3-6.84-46.57-15.1s-32.3-34.74-32.3-57.63V115.4c0-7.3,5.42-9.47,7.93-11s31.51-16.83,70.94-16.83S222,102.8,224.56,104.36s7.93,3.74,7.93,11v95.41c0,22.89-20,49.37-32.31,57.63S171.39,283.54,153.61,283.54Z"/><path id="baca3315-89ed-4a9c-a3d9-e853e801908b" data-name="Shell outside" class="eb8e9a65-4ebb-4a9b-a36e-cbcb663f8059" d="M153.61,87.53c39.44,0,68.43,15.27,70.95,16.83s7.93,3.74,7.93,11v95.41c0,22.89-20,49.37-32.31,57.63s-28.79,15.1-46.57,15.1-34.3-6.84-46.57-15.1-32.3-34.74-32.3-57.63V115.4c0-7.3,5.42-9.47,7.93-11s31.51-16.83,70.94-16.83m0-4a167.36,167.36,0,0,0-50.54,8c-12.71,4.08-21,8.47-22.52,9.42l-.85.5c-2.91,1.67-9,5.16-9,13.94v95.41c0,7.7,2.11,20.27,12.16,36.42,6.46,10.38,14.85,19.78,21.91,24.54,8.76,5.89,26.74,15.78,48.81,15.78s40.06-9.89,48.81-15.78c7.06-4.76,15.46-14.16,21.92-24.54,10-16.15,12.16-28.72,12.16-36.42V115.4c0-8.78-6.06-12.27-9-13.94l-.85-.5c-1.52-.95-9.81-5.34-22.52-9.42a167.42,167.42,0,0,0-50.55-8Z"/><path id="bccf3cab-fccc-4397-9169-fefcc650351b" data-name="Shell inside" class="f930e1ac-4b1b-448d-98e4-9df71b3577e9" d="M153.61,271.75c-15.42,0-29.75-6.06-40.39-13.39s-28-30.82-28-51.12V122.61c0-6.47,4.71-8.39,6.88-9.79s27.33-14.93,61.53-14.93,59.35,13.54,61.53,14.93,6.88,3.32,6.88,9.79v84.63c0,20.3-17.38,43.79-28,51.12S169,271.75,153.61,271.75Z"/><path id="e5980dd2-0827-4f54-a355-d4a72c49317c" data-name="Shell inside" class="b47e2c51-ab87-4fe8-a197-9e5e54c061f2" d="M153.61,262.87c-13.45,0-26-5.45-35.24-12S93.93,223.18,93.93,205V129c0-5.81,4.1-7.54,6-8.79s23.84-13.4,53.68-13.4,51.79,12.15,53.69,13.4,6,3,6,8.79v76c0,18.23-15.16,39.31-24.45,45.89S167.07,262.87,153.61,262.87Z"/></g><g id="a6e919cf-6252-4aba-b76d-4389b993017d" data-name="Suit"><path class="ad3c38a2-6607-4d3a-90a5-7efc73bcb678" d="M154.53,150.2l-60.6,21.43V205c0,18.23,15.16,39.31,24.44,45.89s21.79,12,35.24,12,26-5.45,35.24-12S213.3,223.18,213.3,205V171.21Z"/><path class="a7afa5ec-ef6f-4e41-864a-5bfdf90c96db" d="M179.39,163.91l-15.72,57.48-6-28.63s3.88-2.31,4.19-6.61a6,6,0,0,0-3.35-6.19c-.94-.63-4-.94-4-.94s-3.06.31-4,.94a6,6,0,0,0-3.36,6.19c.32,4.3,4.2,6.61,4.2,6.61l-6,28.63-15.72-57.48.31-1.67.76-1a52.17,52.17,0,0,0,7.32,6.12c8.89,6.27,15.82,5.82,15.82,5.82s6.92.45,15.81-5.82a50.86,50.86,0,0,0,8-6.88l1.36,1.75Z"/><path class="eb8e9a65-4ebb-4a9b-a36e-cbcb663f8059" d="M204.26,203.66a5.34,5.34,0,0,1-.42,1.37l-12.38,12.06L186,212.16l9.23-8.08,1-1.69L182,176.6l-24.64,88.21L154.53,266l-2.85-1.15L127,176.6l-14.19,25.79,1,1.69,9.22,8.08-5.45,4.93L105.21,205a5.34,5.34,0,0,1-.42-1.37,3.38,3.38,0,0,1,.42-1.15l18.46-37.13a57.65,57.65,0,0,1,1.89-5.87c.23-.42,1-1.46,1.74-2.48,1-1.29,1.93-2.56,1.93-2.56l3.25,4.52-1.75,2.26-.76,1-.31,1.67,15.72,57.48,6-28.63s-3.88-2.31-4.2-6.61a6,6,0,0,1,3.36-6.19c.95-.63,4-.94,4-.94s3.06.31,4,.94a6,6,0,0,1,3.35,6.19c-.31,4.3-4.19,6.61-4.19,6.61l6,28.63,15.72-57.48-.3-1.67-1.36-1.75-1.16-1.5,3.25-4.52.92,1.21c1,1.29,2.41,3.22,2.75,3.83a60.31,60.31,0,0,1,1.89,5.87l18.46,37.13A3.38,3.38,0,0,1,204.26,203.66Z"/></g><g id="abbb5100-e4cd-483f-b471-384eef7906b6" data-name="Face"><path class="eb8e9a65-4ebb-4a9b-a36e-cbcb663f8059" d="M187.7,129.83c-1.29,2.57-6.55,5.92-6.55,5.92l-.41,19.93v.8a18.5,18.5,0,0,1-3,4,50.86,50.86,0,0,1-8,6.88c-8.89,6.27-15.81,5.82-15.81,5.82s-6.93.45-15.82-5.82a52.17,52.17,0,0,1-7.32-6.12A25,25,0,0,1,127.3,157c-.21-.36-.3-.55-.3-.55l-.42-20.73s-5.26-3.35-6.56-5.92c.1-1.29-.21-13.06,0-13.74a20.45,20.45,0,0,1,2.54-3.18s-.32-19.54.1-23,2-9.59,10.55-16.65,19.61-6.16,20.66-6.43c1,.27,12.08-.63,20.64,6.43s10.13,13.16,10.56,16.65.1,23,.1,23a19.91,19.91,0,0,1,2.53,3.18C187.92,116.77,187.61,128.54,187.7,129.83Z"/><path class="fd97e2d3-d9d0-4e69-91d5-f295bc796249" d="M154.53,165.67a19.43,19.43,0,0,1-8.85-1.94c-1.73-.94-5-2.67-9.07-8.65s-4.83-40.22-4.83-40.22l22.75,12.64,22.74-12.64s-.74,34.24-4.83,40.22-7.34,7.71-9.07,8.65A19.41,19.41,0,0,1,154.53,165.67Z"/><path class="a7afa5ec-ef6f-4e41-864a-5bfdf90c96db" d="M154.53,126.68s6.52.11,9.87,0a44,44,0,0,0,8.81-1.78s.09,11.7-2.36,20.9-5.14,11.4-8.23,13.29-4.44,1.89-8.09,1.89-7.43-.32-10.05-2.2-6-7-7.56-11.33-4-12.69-4.09-18.25,0-7.34,0-7.34a66.43,66.43,0,0,0,9.65,3.67C146.36,126.47,154.53,126.68,154.53,126.68Z"/><rect x="150.71" y="122.91" width="7.19" height="21.5"/><rect x="150.71" y="148.6" width="7.19" height="1.68"/></g><g id="adf4ef6b-5654-416c-93e5-c96a6c77fa51" data-name="Hat"><path class="a7afa5ec-ef6f-4e41-864a-5bfdf90c96db" d="M154.53,99.27a25.44,25.44,0,0,0-7.43.69c-3.64,1-16,7.29-16,7.29s-1.12.74-1.11-.39-.06-13.17.21-15.2.9-8.15,8.51-14.18a24,24,0,0,1,15.79-5.23,23.92,23.92,0,0,1,15.78,5.23c7.61,6,8.25,12.14,8.51,14.18s.21,14.06.21,15.2-1.11.39-1.11.39S165.6,101,162,100A25.39,25.39,0,0,0,154.53,99.27Z"/><path class="bd4e2527-e57c-4a83-bf86-82d9893bd6d8" d="M154.53,77.47c-.64,0-9.76-.2-15.74,4.14s-8.4,9.7-8.67,11.74-.1,12.37-.1,13.51,1.11.39,1.11.39,12.33-6.28,16-7.29a24,24,0,0,1,7.43-.69h0A24,24,0,0,1,162,100c3.64,1,16,7.29,16,7.29s1.12.74,1.11-.39.16-11.48-.1-13.51-2.7-7.41-8.67-11.74-15.1-4.17-15.73-4.14"/><circle class="a7afa5ec-ef6f-4e41-864a-5bfdf90c96db" cx="154.53" cy="89.36" r="7.22"/><path class="b736e52f-c205-4d57-a85f-dd25b24891cf" d="M154.52,120.29a4.4,4.4,0,0,1-2.05-.42L136,111.59s12-5.46,13.34-5.87a38.67,38.67,0,0,1,5.2-.72h0a38.67,38.67,0,0,1,5.2.72c1.38.41,13.34,5.87,13.34,5.87l-16.49,8.28a4.4,4.4,0,0,1-2.05.42"/></g><g id="f4328ff0-c8f9-4234-9d99-2aab489284cd" data-name="Card"><rect class="eb8e9a65-4ebb-4a9b-a36e-cbcb663f8059" x="181.36" y="220.79" width="26.95" height="19.19" rx="9.6"/><rect class="a7afa5ec-ef6f-4e41-864a-5bfdf90c96db" x="186.39" y="225.77" width="17.46" height="9.07" rx="2"/><rect class="eb8e9a65-4ebb-4a9b-a36e-cbcb663f8059" x="188.39" y="228.44" width="12.85" height="3.99" rx="1"/></g></g><path class="eb8e9a65-4ebb-4a9b-a36e-cbcb663f8059" d="M362.88,218.26c0,1.47-.92,2.2-2.75,2.2h-14.4a5.45,5.45,0,0,1-3.36-.82,7,7,0,0,1-1.85-3.3l-3.85-10.83h-33.6l-3.85,10.83a7,7,0,0,1-1.85,3.3,5.45,5.45,0,0,1-3.36.82h-14.4c-1.83,0-2.75-.73-2.75-2.2a3.57,3.57,0,0,1,.42-1.64l30.45-82.17a7.24,7.24,0,0,1,2.13-3.23,5.49,5.49,0,0,1,3.49-1h13.17a5.22,5.22,0,0,1,3.43,1,8.56,8.56,0,0,1,2.2,3.23l30.31,82.17A3.57,3.57,0,0,1,362.88,218.26ZM319.94,156,309.65,186.3h20.58Z"/><path class="eb8e9a65-4ebb-4a9b-a36e-cbcb663f8059" d="M445.18,131.09a4.07,4.07,0,0,1,1,3.08v58.72q0,10.14-5.41,16.8A31.55,31.55,0,0,1,427,219.43a49,49,0,0,1-17.22,3.09,48.43,48.43,0,0,1-17.15-3.09A31.54,31.54,0,0,1,379,209.69q-5.43-6.66-5.42-16.8V134.17a4.07,4.07,0,0,1,1-3.08,4.28,4.28,0,0,1,3-.9h13.59a4.28,4.28,0,0,1,3,.9,4.07,4.07,0,0,1,1,3.08v55.7q0,6.45,3.91,10t10.77,3.57q6.85,0,10.84-3.57t4-10v-55.7a4.07,4.07,0,0,1,1-3.08,4.29,4.29,0,0,1,3-.9h13.58A4.28,4.28,0,0,1,445.18,131.09Z"/><path class="eb8e9a65-4ebb-4a9b-a36e-cbcb663f8059" d="M529.48,131.15a4.31,4.31,0,0,1,.89,3v11.39a4.31,4.31,0,0,1-.89,3,4.08,4.08,0,0,1-3.09,1h-21v66.94a4.11,4.11,0,0,1-1,3.09,4.36,4.36,0,0,1-3,.89H487.85a4.36,4.36,0,0,1-3-.89,4.11,4.11,0,0,1-1-3.09V149.54H462.74a4.07,4.07,0,0,1-3.08-1,4.31,4.31,0,0,1-.9-3V134.17a4.31,4.31,0,0,1,.9-3,4.11,4.11,0,0,1,3.08-1h63.65A4.12,4.12,0,0,1,529.48,131.15Z"/><path class="eb8e9a65-4ebb-4a9b-a36e-cbcb663f8059" d="M616.8,131.09a4.11,4.11,0,0,1,1,3.08v82.31a4.15,4.15,0,0,1-1,3.09,4.38,4.38,0,0,1-3,.89H600.2a4.36,4.36,0,0,1-3-.89,4.11,4.11,0,0,1-1-3.09v-31H565.63v31c0,1.56-.32,2.61-1,3.16a4.64,4.64,0,0,1-3,.82H548.07a4.36,4.36,0,0,1-3-.89,4.11,4.11,0,0,1-1-3.09V134.17a4.07,4.07,0,0,1,1-3.08,4.31,4.31,0,0,1,3-.9h13.58a4.58,4.58,0,0,1,3,.83q1,.82,1,3.15v31h30.59v-31a4.07,4.07,0,0,1,1-3.08,4.31,4.31,0,0,1,3-.9h13.58A4.33,4.33,0,0,1,616.8,131.09Z"/><path class="f4a4f808-e9b3-4ee0-812d-2b87617c73e4" d="M722.08,131a4.29,4.29,0,0,1,.89,3v82.44a4.11,4.11,0,0,1-1,3.09,4.33,4.33,0,0,1-3,.89H705.83a4.34,4.34,0,0,1-3-.89,4.11,4.11,0,0,1-1-3.09V170l-13.72,24q-1.78,2.88-4,2.88h-6.86a3,3,0,0,1-2.19-.82,13.25,13.25,0,0,1-1.65-2.06L659.6,170v46.5a4.15,4.15,0,0,1-1,3.09,4.36,4.36,0,0,1-3,.89H642a4.36,4.36,0,0,1-3-.89,4.11,4.11,0,0,1-1-3.09V134a4.29,4.29,0,0,1,.89-3,4.08,4.08,0,0,1,3.09-1h13.58a5.67,5.67,0,0,1,3.63,1,7.06,7.06,0,0,1,1.79,2.12,17.74,17.74,0,0,0,.89,1.58l18.79,33.75,18.93-33.75a14.23,14.23,0,0,0,.89-1.71,5.1,5.1,0,0,1,1.92-2.13,6.21,6.21,0,0,1,3.37-.82H719A4.07,4.07,0,0,1,722.08,131Z"/><path class="f4a4f808-e9b3-4ee0-812d-2b87617c73e4" d="M821.33,218.26c0,1.47-.91,2.2-2.74,2.2H804.18a5.49,5.49,0,0,1-3.36-.82,7.22,7.22,0,0,1-1.85-3.3l-3.84-10.83H761.52l-3.84,10.83a7.22,7.22,0,0,1-1.85,3.3,5.49,5.49,0,0,1-3.36.82H738.06c-1.83,0-2.74-.73-2.74-2.2a3.68,3.68,0,0,1,.41-1.64l30.46-82.17a7.14,7.14,0,0,1,2.12-3.23,5.54,5.54,0,0,1,3.5-1H785a5.24,5.24,0,0,1,3.43,1,8.67,8.67,0,0,1,2.19,3.23l30.32,82.17A3.55,3.55,0,0,1,821.33,218.26ZM778.39,156,768.11,186.3h20.57Z"/><path class="f4a4f808-e9b3-4ee0-812d-2b87617c73e4" d="M905.42,131.09a4.07,4.07,0,0,1,1,3.08v82.31a4.31,4.31,0,0,1-.89,3,4.07,4.07,0,0,1-3.08,1H889.92a4.85,4.85,0,0,1-3.36-1,22.26,22.26,0,0,1-2.81-3.71l-29.08-47v47.74a4.11,4.11,0,0,1-1,3.09,4.36,4.36,0,0,1-3,.89H837.11a4.36,4.36,0,0,1-3-.89,4.11,4.11,0,0,1-1-3.09V134.17a4.36,4.36,0,0,1,.89-3,4.14,4.14,0,0,1,3.09-1H850a4.87,4.87,0,0,1,3.36,1,21.63,21.63,0,0,1,2.82,3.71l29.08,46.91v-47.6a4.07,4.07,0,0,1,1-3.08,4.31,4.31,0,0,1,3-.9h13.17A4.28,4.28,0,0,1,905.42,131.09Z"/></g></svg>