<svg xmlns="http://www.w3.org/2000/svg" xmlns:xlink="http://www.w3.org/1999/xlink" viewBox="0 0 800 800"><defs><style>.fcba8f20-5fbb-49e4-80b1-c804650d23dd{fill:#f7f8f8;}.a048b52c-423c-4013-bc1b-dc1aeebd420e{fill:#001d2e;}.fc3e8e12-9c16-4dec-b72c-a3b5fffff8bd{fill:#feb203;}.a692a6e3-8271-4985-9384-7ffa5ac35f67{fill:url(#a9e17fe7-3ea6-490e-9b79-e94551ca9d12);}.bb5e89c4-bf84-4317-a188-9e4b11789356{fill:url(#fa74bb68-b22c-4d0b-b860-a247651bdcae);}.a374507a-034d-4797-af84-8aa0feed1216{fill:url(#a58dd92a-a714-40b2-9505-6aa5df6b27fa);}.ac77ee7e-84f3-404f-b9f2-ea027f914b31{fill:url(#adb05b29-60f2-4cbc-ab8b-51199d5ac825);}.b1391191-d7a7-4c47-a638-907eea66e795{fill:url(#a516184b-8693-4463-8e9d-6f07e01e0ad6);}.ea833546-b67b-463c-99e0-a56bf546ec05{fill:#fff;}.a1fc3117-eeba-4c57-ab99-c2b16614d4d8{fill:#fec52b;}</style><linearGradient id="a9e17fe7-3ea6-490e-9b79-e94551ca9d12" x1="400" y1="135.15" x2="400" y2="382.64" gradientUnits="userSpaceOnUse"><stop offset="0" stop-color="#f9d546"/><stop offset="1" stop-color="#feb203"/></linearGradient><linearGradient id="fa74bb68-b22c-4d0b-b860-a247651bdcae" x1="400" y1="310.03" x2="400" y2="738.47" gradientUnits="userSpaceOnUse"><stop offset="0" stop-color="#f9d546"/><stop offset="0.77" stop-color="#feb203"/></linearGradient><linearGradient id="a58dd92a-a714-40b2-9505-6aa5df6b27fa" x1="294.07" y1="228.63" x2="468.52" y2="228.63" gradientUnits="userSpaceOnUse"><stop offset="0.02" stop-color="#f7f8f8"/><stop offset="0.18" stop-color="#d8e7e4"/><stop offset="0.39" stop-color="#b3d3cc"/><stop offset="0.5" stop-color="#a5cbc3"/></linearGradient><linearGradient id="adb05b29-60f2-4cbc-ab8b-51199d5ac825" x1="402.5" y1="61.31" x2="402.5" y2="122.32" gradientUnits="userSpaceOnUse"><stop offset="0" stop-color="#f9d546"/><stop offset="0.54" stop-color="#feb203"/></linearGradient><linearGradient id="a516184b-8693-4463-8e9d-6f07e01e0ad6" x1="-1669.05" y1="156.27" x2="-1669.05" y2="135.96" gradientTransform="matrix(-1, 0, 0, 1, -1266.55, 0)" xlink:href="#adb05b29-60f2-4cbc-ab8b-51199d5ac825"/></defs><g id="a63b0a09-366e-474d-ba46-40a9034416be" data-name="SQ Colorful BG-Black"><g id="ad5c04fa-3cb0-4554-b8c0-759979a210b0" data-name="Authman"><g id="b45e7181-929f-4cf0-bb6b-7c2f31d6ac96" data-name="Shield"><path id="e0d28c0c-a2cc-4b0b-b393-7c34021f4d91" data-name="Shell outside" class="fcba8f20-5fbb-49e4-80b1-c804650d23dd" d="M400,621.89c-48.8,0-94.16-18.77-127.83-41.45s-88.66-95.35-88.66-158.18V160.37c0-20,14.88-26,21.77-30.28S291.75,83.89,400,83.89s187.82,41.9,194.72,46.2,21.77,10.25,21.77,30.28V422.26c0,62.83-55,135.51-88.67,158.18S448.8,621.89,400,621.89Z"/><path id="e92ed748-1f6f-4b10-8f99-4aee9f607087" data-name="Shell outside" class="a048b52c-423c-4013-bc1b-dc1aeebd420e" d="M400,83.89c108.24,0,187.82,41.9,194.72,46.2s21.77,10.25,21.77,30.28V422.26c0,62.83-55,135.51-88.67,158.18s-79,41.45-127.82,41.45-94.16-18.77-127.83-41.45-88.66-95.35-88.66-158.18V160.37c0-20,14.88-26,21.77-30.28S291.75,83.89,400,83.89m0-11a459.69,459.69,0,0,0-138.73,22c-34.88,11.2-57.63,23.24-61.82,25.85-.62.39-1.45.87-2.32,1.37-8,4.6-24.63,14.16-24.63,38.25V422.26c0,21.14,5.79,55.64,33.37,100,17.73,28.5,40.78,54.3,60.16,67.35,24,16.18,73.38,43.33,134,43.33s109.94-27.15,134-43.33c19.38-13.05,42.43-38.85,60.16-67.35,27.57-44.32,33.36-78.82,33.36-100V160.37c0-24.09-16.63-33.65-24.62-38.25-.87-.5-1.7-1-2.32-1.37-4.19-2.61-26.94-14.65-61.82-25.85A459.69,459.69,0,0,0,400,72.88Z"/><path id="beb24fe1-b924-497d-aeb5-fe32e23571eb" data-name="Shell inside" class="fc3e8e12-9c16-4dec-b72c-a3b5fffff8bd" d="M400,589.53c-42.33,0-81.66-16.65-110.87-36.77s-76.9-84.58-76.9-140.3V180.17c0-17.77,12.91-23,18.89-26.86s75-41,168.88-41,162.9,37.16,168.88,41,18.88,9.09,18.88,26.86V412.46c0,55.72-47.69,120.19-76.9,140.3S442.32,589.53,400,589.53Z"/><path id="ae28f8d8-a394-42da-8685-e83b171d0389" data-name="Shell inside" class="a692a6e3-8271-4985-9384-7ffa5ac35f67" d="M400,565.15c-36.93,0-71.25-14.95-96.73-33s-67.09-75.94-67.09-126V197.62c0-16,11.26-20.68,16.47-24.11S318.09,136.72,400,136.72s142.13,33.36,147.34,36.79,16.48,8.16,16.48,24.11V406.17c0,50-41.62,107.91-67.1,126S436.93,565.15,400,565.15Z"/></g><g id="b7fa2316-7bba-497f-a4c7-2a974a5201e9" data-name="Suit"><path class="bb5e89c4-bf84-4317-a188-9e4b11789356" d="M402.5,255.91,236.18,314.73v91.44c0,50,41.61,107.91,67.09,126s59.8,33,96.73,33,71.25-14.95,96.72-33,67.1-75.94,67.1-126V313.58Z"/><path class="fcba8f20-5fbb-49e4-80b1-c804650d23dd" d="M470.75,293.54,427.6,451.3l-16.41-78.59s10.65-6.33,11.51-18.14-6.61-15.26-9.21-17-11-2.59-11-2.59-8.4.86-11,2.59-10.07,5.18-9.21,17,11.51,18.14,11.51,18.14l-16.4,78.59L334.25,293.54l.84-4.6,2.1-2.71A144.82,144.82,0,0,0,357.29,303c24.38,17.2,43.4,16,43.4,16s19,1.23,43.4-16a138.46,138.46,0,0,0,22.09-18.91l3.74,4.81Z"/><path class="a048b52c-423c-4013-bc1b-dc1aeebd420e" d="M539,402.64a14.45,14.45,0,0,1-1.14,3.74l-34,33.11-15-13.53,25.34-22.16,2.65-4.66L478,328.37l-67.64,242.1-7.82,3.17-7.83-3.17L327,328.37,288.1,399.14l2.66,4.66L316.09,426l-15,13.53-34-33.11a14.27,14.27,0,0,1-1.16-3.74,9.15,9.15,0,0,1,1.16-3.16l50.65-101.91S321.56,284,323,281.46c.64-1.16,2.7-4,4.79-6.83,2.62-3.53,5.28-7,5.28-7L342,280l-4.8,6.22-2.1,2.71-.84,4.6L377.41,451.3l16.4-78.59s-10.64-6.33-11.51-18.14,6.62-15.26,9.21-17,11-2.59,11-2.59,8.39.86,11,2.59,10.08,5.18,9.21,17-11.51,18.14-11.51,18.14L427.6,451.3l43.15-157.76-.83-4.6-3.74-4.81L463,280l8.93-12.38,2.53,3.32c2.66,3.53,6.62,8.82,7.54,10.51,1.44,2.58,5.18,16.11,5.18,16.11l50.68,101.91A9.25,9.25,0,0,1,539,402.64Z"/></g><g id="aca87a20-6f10-43ef-b5e9-eef652aae23e" data-name="Face"><path class="a048b52c-423c-4013-bc1b-dc1aeebd420e" d="M493.57,200c-3.56,7-18,16.26-18,16.26L474.46,271l0,2.2s-2,4.18-8.24,11A138.46,138.46,0,0,1,444.09,303c-24.39,17.2-43.4,16-43.4,16s-19,1.23-43.4-16a144.82,144.82,0,0,1-20.1-16.81,67.35,67.35,0,0,1-9.4-11.6c-.59-1-.83-1.48-.83-1.48l-1.15-56.9S311.35,207,307.8,200c.26-3.55-.57-35.85,0-37.73s7-8.7,7-8.7-.87-53.65.28-63.22S320.5,64,344,44.63,397.82,27.73,400.69,27c2.86.73,33.16-1.75,56.67,17.63s27.8,36.13,29,45.71.28,63.22.28,63.22,6.39,6.81,7,8.7S493.31,196.44,493.57,200Z"/><path class="a374507a-034d-4797-af84-8aa0feed1216" d="M402.5,298.37c-10.69,0-19.53-2.73-24.28-5.32s-13.67-7.35-24.9-23.75-13.24-110.4-13.24-110.4l62.42,34.68,62.43-34.68s-2,94-13.25,110.4-20.15,21.15-24.9,23.75S413.2,298.37,402.5,298.37Z"/><path class="fcba8f20-5fbb-49e4-80b1-c804650d23dd" d="M402.5,191.35s17.9.29,27.11,0,24.18-4.89,24.18-4.89.25,32.1-6.49,57.36-14.09,31.3-22.58,36.48-12.19,5.18-22.22,5.18-20.39-.86-27.58-6-16.41-19.29-20.73-31.09S343.25,213.51,343,198.26s0-20.15,0-20.15,15.84,7.48,26.49,10.07S402.5,191.35,402.5,191.35Z"/><rect x="392.03" y="180.99" width="19.74" height="59.01"/><rect x="392.03" y="251.51" width="19.74" height="4.61"/></g><g id="bbad587b-04c0-47ae-a9b7-481d09f2e573" data-name="Hat"><path class="fcba8f20-5fbb-49e4-80b1-c804650d23dd" d="M402.5,116.11c3.7,0-10.4-.89-20.39,1.89s-43.83,20-43.83,20-3.06,2-3-1.08-.14-36.14.58-41.73,2.47-22.35,23.37-38.9S402.5,42,402.5,42s22.43-2.18,43.32,14.36,22.64,33.31,23.37,38.9.57,38.6.58,41.73-3,1.08-3,1.08-33.83-17.25-43.83-20S398.8,116.11,402.5,116.11Z"/><path class="ac77ee7e-84f3-404f-b9f2-ea027f914b31" d="M402.5,56.28c-1.73-.09-26.77-.55-43.17,11.35s-23.08,26.64-23.8,32.22-.28,34-.3,37.09,3,1.08,3,1.08,33.84-17.25,43.83-20a65.6,65.6,0,0,1,20.39-1.89h0A65.6,65.6,0,0,1,422.89,118c10,2.77,43.83,20,43.83,20s3.06,2,3-1.08.44-31.5-.29-37.09-7.4-20.31-23.8-32.22S404.24,56.19,402.5,56.28"/><circle class="fcba8f20-5fbb-49e4-80b1-c804650d23dd" cx="402.5" cy="88.9" r="19.81"/><path class="b1391191-d7a7-4c47-a638-907eea66e795" d="M402.5,173.82a12.1,12.1,0,0,1-5.65-1.16l-45.26-22.74s32.85-15,36.62-16.12,14.29-2,14.29-2h0s10.53.83,14.3,2,36.61,16.12,36.61,16.12l-45.26,22.74a12.05,12.05,0,0,1-5.65,1.16"/></g><g id="b81db181-e319-4535-aef6-f131b91caae1" data-name="Card"><rect class="a048b52c-423c-4013-bc1b-dc1aeebd420e" x="476.15" y="449.65" width="73.98" height="52.68" rx="12"/><rect class="fcba8f20-5fbb-49e4-80b1-c804650d23dd" x="489.97" y="463.32" width="47.93" height="24.9" rx="2"/><rect class="a048b52c-423c-4013-bc1b-dc1aeebd420e" x="495.44" y="470.66" width="35.26" height="10.94" rx="1"/></g></g><path class="ea833546-b67b-463c-99e0-a56bf546ec05" d="M194.61,756.44c0,1.29-.8,1.94-2.42,1.94H179.48a4.78,4.78,0,0,1-3-.73,6.23,6.23,0,0,1-1.64-2.91l-3.39-9.56H141.83l-3.39,9.56a6.32,6.32,0,0,1-1.63,2.91,4.83,4.83,0,0,1-3,.73H121.13c-1.62,0-2.42-.65-2.42-1.94a3.2,3.2,0,0,1,.36-1.45L146,682.47a6.44,6.44,0,0,1,1.87-2.85,4.89,4.89,0,0,1,3.09-.9h11.62a4.64,4.64,0,0,1,3,.9,7.71,7.71,0,0,1,1.94,2.85L194.25,755A3.2,3.2,0,0,1,194.61,756.44Zm-37.89-55-9.08,26.75H165.8Z"/><path class="ea833546-b67b-463c-99e0-a56bf546ec05" d="M267.25,679.5a3.61,3.61,0,0,1,.85,2.73V734q0,9-4.78,14.83a27.83,27.83,0,0,1-12.11,8.6A43.37,43.37,0,0,1,236,760.19a42.83,42.83,0,0,1-15.13-2.72,27.82,27.82,0,0,1-12-8.6Q204.06,743,204.06,734V682.23a3.65,3.65,0,0,1,.84-2.73,3.87,3.87,0,0,1,2.67-.78h12a3.87,3.87,0,0,1,2.67.78,3.65,3.65,0,0,1,.84,2.73v49.15q0,5.68,3.45,8.84c2.31,2.1,5.47,3.14,9.51,3.14s7.22-1,9.56-3.14,3.51-5.05,3.51-8.84V682.23a3.61,3.61,0,0,1,.85-2.73,3.83,3.83,0,0,1,2.66-.78h12A3.83,3.83,0,0,1,267.25,679.5Z"/><path class="ea833546-b67b-463c-99e0-a56bf546ec05" d="M341.65,679.56a3.87,3.87,0,0,1,.78,2.67v10a3.85,3.85,0,0,1-.78,2.67,3.65,3.65,0,0,1-2.73.85H320.4v59.08a3.57,3.57,0,0,1-.85,2.72,3.78,3.78,0,0,1-2.66.79h-12a3.78,3.78,0,0,1-2.66-.79,3.57,3.57,0,0,1-.85-2.72V695.79H282.75a3.61,3.61,0,0,1-2.72-.85,3.8,3.8,0,0,1-.79-2.67v-10a3.82,3.82,0,0,1,.79-2.67,3.61,3.61,0,0,1,2.72-.84h56.17A3.65,3.65,0,0,1,341.65,679.56Z"/><path class="ea833546-b67b-463c-99e0-a56bf546ec05" d="M418.7,679.5a3.61,3.61,0,0,1,.85,2.73v72.64a3.57,3.57,0,0,1-.85,2.72,3.78,3.78,0,0,1-2.66.79h-12a3.78,3.78,0,0,1-2.66-.79,3.57,3.57,0,0,1-.85-2.72V727.5h-27v27.37a3.6,3.6,0,0,1-.85,2.78,4.07,4.07,0,0,1-2.67.73h-12a3.78,3.78,0,0,1-2.66-.79,3.57,3.57,0,0,1-.85-2.72V682.23a3.61,3.61,0,0,1,.85-2.73,3.83,3.83,0,0,1,2.66-.78h12a4.08,4.08,0,0,1,2.67.72,3.63,3.63,0,0,1,.85,2.79v27.36h27V682.23a3.61,3.61,0,0,1,.85-2.73,3.83,3.83,0,0,1,2.66-.78h12A3.83,3.83,0,0,1,418.7,679.5Z"/><path class="a1fc3117-eeba-4c57-ab99-c2b16614d4d8" d="M511.62,679.44a3.85,3.85,0,0,1,.79,2.67v72.76a3.61,3.61,0,0,1-.85,2.72,3.79,3.79,0,0,1-2.66.79H497.27a3.78,3.78,0,0,1-2.66-.79,3.57,3.57,0,0,1-.85-2.72v-41L481.66,735q-1.57,2.54-3.51,2.54h-6.06a2.64,2.64,0,0,1-1.94-.72A12.71,12.71,0,0,1,468.7,735l-12.23-21.19v41a3.61,3.61,0,0,1-.84,2.72,3.82,3.82,0,0,1-2.67.79H441a3.78,3.78,0,0,1-2.66-.79,3.57,3.57,0,0,1-.85-2.72V682.11a3.85,3.85,0,0,1,.78-2.67,3.65,3.65,0,0,1,2.73-.85h12a5,5,0,0,1,3.21.85,6.29,6.29,0,0,1,1.58,1.88c.36.68.62,1.15.78,1.39l16.59,29.78,16.7-29.78a11.78,11.78,0,0,0,.79-1.51,4.51,4.51,0,0,1,1.7-1.88,5.47,5.47,0,0,1,3-.73H508.9A3.63,3.63,0,0,1,511.62,679.44Z"/><path class="a1fc3117-eeba-4c57-ab99-c2b16614d4d8" d="M599.21,756.44c0,1.29-.81,1.94-2.42,1.94H584.08a4.81,4.81,0,0,1-3-.73,6.23,6.23,0,0,1-1.63-2.91l-3.39-9.56H546.43L543,754.74a6.32,6.32,0,0,1-1.64,2.91,4.78,4.78,0,0,1-3,.73H525.72c-1.61,0-2.42-.65-2.42-1.94a3.2,3.2,0,0,1,.36-1.45l26.88-72.52a6.45,6.45,0,0,1,1.88-2.85,4.86,4.86,0,0,1,3.09-.9h11.62a4.59,4.59,0,0,1,3,.9,7.6,7.6,0,0,1,1.94,2.85L598.85,755A3.2,3.2,0,0,1,599.21,756.44Zm-37.89-55-9.08,26.75H570.4Z"/><path class="a1fc3117-eeba-4c57-ab99-c2b16614d4d8" d="M673.42,679.5a3.61,3.61,0,0,1,.85,2.73v72.64a3.79,3.79,0,0,1-.79,2.66,3.61,3.61,0,0,1-2.72.85h-11a4.27,4.27,0,0,1-3-.85,19.37,19.37,0,0,1-2.49-3.27l-25.66-41.53v42.14a3.61,3.61,0,0,1-.85,2.72,3.79,3.79,0,0,1-2.66.79h-12a3.78,3.78,0,0,1-2.66-.79,3.57,3.57,0,0,1-.85-2.72V682.23a3.82,3.82,0,0,1,.79-2.67,3.61,3.61,0,0,1,2.72-.84h11.38a4.32,4.32,0,0,1,3,.84,20,20,0,0,1,2.48,3.27l25.66,41.41v-42a3.65,3.65,0,0,1,.85-2.73,3.87,3.87,0,0,1,2.67-.78h11.62A3.83,3.83,0,0,1,673.42,679.5Z"/></g></svg>