<svg xmlns="http://www.w3.org/2000/svg" xmlns:xlink="http://www.w3.org/1999/xlink" viewBox="0 0 800 800"><defs><style>.f948a3ba-5483-4b20-aadd-6d621fc6ab2f{fill:#f7f8f8;}.ea7fc2ca-0d6c-499c-bf58-266a545531c5{fill:#001d2e;}.fdccc728-37c3-4525-91b9-b923258ab824{fill:#feb203;}.edd703d0-475d-4b70-b81d-7084057d0569{fill:url(#bbf1ffc3-77a7-4e05-aec2-c1beb6f4639d);}.fc49f7a2-eb6a-4227-b888-c65804cca261{fill:url(#a5d8d197-4cbb-4ca0-82ca-87792b486a96);}.b74ebc95-b7cd-48fa-86e1-066daecfae1e{fill:url(#b94925af-a259-4f67-b642-dcc909c28910);}.ada4e544-7228-455e-afd6-36825bb82046{fill:url(#b8cec9d4-c9b2-455a-8475-668755464458);}.f787f54c-bbd4-41ff-96e6-ffb8c558a7e8{fill:url(#fa23b834-bde7-457d-8693-59ba302b3452);}.b49ad275-52ea-4ac2-8442-8bcb1ed1e710{fill:#fec52b;}</style><linearGradient id="bbf1ffc3-77a7-4e05-aec2-c1beb6f4639d" x1="400" y1="135.15" x2="400" y2="382.64" gradientUnits="userSpaceOnUse"><stop offset="0" stop-color="#f9d546"/><stop offset="1" stop-color="#feb203"/></linearGradient><linearGradient id="a5d8d197-4cbb-4ca0-82ca-87792b486a96" x1="400" y1="310.03" x2="400" y2="738.47" gradientUnits="userSpaceOnUse"><stop offset="0" stop-color="#f9d546"/><stop offset="0.77" stop-color="#feb203"/></linearGradient><linearGradient id="b94925af-a259-4f67-b642-dcc909c28910" x1="294.07" y1="228.63" x2="468.52" y2="228.63" gradientUnits="userSpaceOnUse"><stop offset="0.02" stop-color="#f7f8f8"/><stop offset="0.18" stop-color="#d8e7e4"/><stop offset="0.39" stop-color="#b3d3cc"/><stop offset="0.5" stop-color="#a5cbc3"/></linearGradient><linearGradient id="b8cec9d4-c9b2-455a-8475-668755464458" x1="402.5" y1="61.31" x2="402.5" y2="122.32" gradientUnits="userSpaceOnUse"><stop offset="0" stop-color="#f9d546"/><stop offset="0.54" stop-color="#feb203"/></linearGradient><linearGradient id="fa23b834-bde7-457d-8693-59ba302b3452" x1="-1669.05" y1="156.27" x2="-1669.05" y2="135.95" gradientTransform="matrix(-1, 0, 0, 1, -1266.55, 0)" xlink:href="#b8cec9d4-c9b2-455a-8475-668755464458"/></defs><g id="ab4e9d2b-f5cb-4b26-84c2-8daff3056a28" data-name="SQ Colorful BG-White"><g id="b79ed455-32b1-497c-8899-5c2b60a8b78b" data-name="Authman"><g id="e252dc57-fc30-4a9a-9d25-359e47c6b6af" data-name="Shield"><path id="fc9e68ab-c0d8-42f5-8a51-d219ee5b5513" data-name="Shell outside" class="f948a3ba-5483-4b20-aadd-6d621fc6ab2f" d="M400,621.9c-48.8,0-94.16-18.78-127.83-41.46s-88.66-95.35-88.66-158.18V160.37c0-20,14.87-26,21.77-30.28S291.75,83.89,400,83.89s187.82,41.9,194.72,46.2,21.77,10.25,21.77,30.28V422.26c0,62.83-55,135.51-88.67,158.18S448.8,621.9,400,621.9Z"/><path id="b65005c8-a58f-411b-8213-f2196828a3d4" data-name="Shell outside" class="ea7fc2ca-0d6c-499c-bf58-266a545531c5" d="M400,83.89c108.25,0,187.82,41.9,194.72,46.2s21.77,10.25,21.77,30.28V422.26c0,62.83-55,135.51-88.67,158.18S448.8,621.9,400,621.9s-94.16-18.78-127.83-41.46-88.66-95.35-88.66-158.18V160.37c0-20,14.87-26,21.77-30.28S291.75,83.89,400,83.89m0-11a459.38,459.38,0,0,0-138.73,22c-34.88,11.2-57.64,23.24-61.82,25.85-.62.39-1.45.87-2.32,1.37-8,4.59-24.63,14.16-24.63,38.25V422.26c0,21.14,5.79,55.64,33.37,100,17.73,28.5,40.78,54.31,60.16,67.35,24,16.19,73.38,43.33,134,43.33s109.94-27.14,134-43.33c19.38-13,42.43-38.85,60.16-67.35,27.58-44.32,33.36-78.82,33.36-100V160.37c0-24.09-16.63-33.66-24.62-38.25-.87-.5-1.7-1-2.32-1.37-4.19-2.61-26.94-14.65-61.82-25.85A459.38,459.38,0,0,0,400,72.88Z"/><path id="b5063847-f860-4798-8740-da4da9a4740e" data-name="Shell inside" class="fdccc728-37c3-4525-91b9-b923258ab824" d="M400,589.53c-42.33,0-81.66-16.65-110.87-36.77s-76.9-84.57-76.9-140.3V180.17c0-17.77,12.91-23,18.88-26.86s75-41,168.89-41,162.9,37.17,168.88,41,18.88,9.09,18.88,26.86V412.46c0,55.73-47.69,120.19-76.9,140.3S442.32,589.53,400,589.53Z"/><path id="e9b1a23b-dce3-4dc5-955b-c18bc5d15b55" data-name="Shell inside" class="edd703d0-475d-4b70-b81d-7084057d0569" d="M400,565.15c-36.93,0-71.25-14.95-96.73-33s-67.09-75.94-67.09-126V197.62c0-16,11.26-20.69,16.47-24.11S318.09,136.72,400,136.72s142.13,33.36,147.34,36.79,16.48,8.16,16.48,24.11V406.17c0,50-41.62,107.91-67.09,126S436.93,565.15,400,565.15Z"/></g><g id="a0c20ead-ff27-4109-b362-2c545b30749b" data-name="Suit"><path class="fc49f7a2-eb6a-4227-b888-c65804cca261" d="M402.5,255.91,236.18,314.73v91.44c0,50,41.61,107.91,67.09,126s59.8,33,96.73,33,71.25-14.95,96.73-33,67.09-75.94,67.09-126V313.58Z"/><path class="f948a3ba-5483-4b20-aadd-6d621fc6ab2f" d="M470.75,293.54,427.6,451.3l-16.41-78.59s10.65-6.33,11.51-18.14-6.61-15.26-9.21-17-11-2.59-11-2.59-8.4.86-11,2.59-10.07,5.18-9.21,17,11.51,18.14,11.51,18.14l-16.4,78.59L334.25,293.54l.84-4.6,2.1-2.71A144.82,144.82,0,0,0,357.29,303c24.38,17.2,43.4,16,43.4,16s19,1.23,43.4-16a138.63,138.63,0,0,0,22.1-18.91l3.73,4.81Z"/><path class="ea7fc2ca-0d6c-499c-bf58-266a545531c5" d="M539,402.64a14.45,14.45,0,0,1-1.14,3.74l-34,33.11-15-13.53,25.34-22.16,2.65-4.66L478,328.37l-67.64,242.1-7.82,3.17-7.83-3.17L327,328.37,288.1,399.14l2.66,4.66L316.09,426l-15,13.53-34-33.11a14.36,14.36,0,0,1-1.15-3.74,9.2,9.2,0,0,1,1.15-3.16l50.66-101.91S321.56,284,323,281.46c.64-1.16,2.69-4,4.79-6.83,2.62-3.53,5.28-7,5.28-7L342,280l-4.8,6.22-2.1,2.71-.84,4.6L377.41,451.3l16.4-78.59s-10.64-6.33-11.51-18.14,6.62-15.26,9.21-17,11-2.59,11-2.59,8.39.86,11,2.59,10.08,5.18,9.21,17-11.51,18.14-11.51,18.14L427.6,451.3l43.15-157.76-.83-4.6-3.73-4.81L463,280l8.93-12.38,2.53,3.32c2.67,3.53,6.62,8.82,7.54,10.51,1.44,2.58,5.18,16.11,5.18,16.11l50.68,101.91A9.25,9.25,0,0,1,539,402.64Z"/></g><g id="b439fce0-283f-46d4-a6a8-6f5d1c908479" data-name="Face"><path class="ea7fc2ca-0d6c-499c-bf58-266a545531c5" d="M493.57,200c-3.56,7-18,16.26-18,16.26L474.46,271l0,2.2s-2,4.18-8.23,11A138.63,138.63,0,0,1,444.09,303c-24.39,17.2-43.4,16-43.4,16s-19,1.23-43.4-16a144.82,144.82,0,0,1-20.1-16.81,67.35,67.35,0,0,1-9.4-11.6c-.59-1-.83-1.48-.83-1.48l-1.16-56.9S311.35,207,307.8,200c.26-3.55-.57-35.85,0-37.73s7-8.7,7-8.7-.87-53.65.28-63.22S320.5,64,344,44.63,397.82,27.73,400.69,27c2.86.73,33.16-1.75,56.67,17.63s27.8,36.13,29,45.71.28,63.22.28,63.22,6.39,6.81,7,8.7S493.32,196.44,493.57,200Z"/><path class="b74ebc95-b7cd-48fa-86e1-066daecfae1e" d="M402.5,298.37c-10.69,0-19.53-2.73-24.28-5.32s-13.67-7.35-24.9-23.75-13.24-110.4-13.24-110.4l62.42,34.68,62.43-34.68s-2,94-13.25,110.4-20.15,21.15-24.9,23.75S413.2,298.37,402.5,298.37Z"/><path class="f948a3ba-5483-4b20-aadd-6d621fc6ab2f" d="M402.5,191.35s17.9.29,27.11,0,24.18-4.9,24.18-4.9.25,32.11-6.49,57.37-14.09,31.3-22.58,36.48-12.19,5.18-22.22,5.18-20.39-.86-27.58-6-16.41-19.29-20.73-31.09S343.25,213.51,343,198.26s0-20.15,0-20.15,15.84,7.48,26.49,10.07S402.5,191.35,402.5,191.35Z"/><rect x="392.03" y="180.99" width="19.74" height="59.01"/><rect x="392.03" y="251.51" width="19.74" height="4.61"/></g><g id="a97bc036-e9a4-443b-a470-12bd812efeba" data-name="Hat"><path class="f948a3ba-5483-4b20-aadd-6d621fc6ab2f" d="M402.5,116.11c3.7,0-10.4-.89-20.39,1.88s-43.83,20-43.83,20-3.06,2-3-1.09-.14-36.13.58-41.72,2.47-22.35,23.37-38.9S402.5,41.94,402.5,41.94s22.43-2.17,43.32,14.37,22.65,33.31,23.37,38.9.57,38.6.58,41.72-3,1.09-3,1.09-33.83-17.25-43.83-20S398.8,116.11,402.5,116.11Z"/><path class="ada4e544-7228-455e-afd6-36825bb82046" d="M402.5,56.28c-1.73-.09-26.77-.55-43.17,11.35s-23.08,26.64-23.8,32.22-.28,34-.3,37.08,3,1.09,3,1.09,33.84-17.25,43.83-20a65.77,65.77,0,0,1,20.39-1.88h0A65.84,65.84,0,0,1,422.9,118c10,2.78,43.83,20,43.83,20s3,2,3-1.09.44-31.49-.29-37.08-7.4-20.32-23.8-32.22S404.24,56.19,402.5,56.28"/><circle class="f948a3ba-5483-4b20-aadd-6d621fc6ab2f" cx="402.5" cy="88.9" r="19.81"/><path class="f787f54c-bbd4-41ff-96e6-ffb8c558a7e8" d="M402.5,173.82a12.1,12.1,0,0,1-5.65-1.16l-45.26-22.74s32.85-15,36.62-16.12,14.29-2,14.29-2h0s10.53.83,14.3,2,36.61,16.12,36.61,16.12l-45.26,22.74a12.05,12.05,0,0,1-5.65,1.16"/></g><g id="abac0eb2-6c77-4981-bf39-6e5fdd149b32" data-name="Card"><rect class="ea7fc2ca-0d6c-499c-bf58-266a545531c5" x="476.15" y="449.65" width="73.98" height="52.68" rx="12"/><rect class="f948a3ba-5483-4b20-aadd-6d621fc6ab2f" x="489.97" y="463.32" width="47.93" height="24.9" rx="2"/><rect class="ea7fc2ca-0d6c-499c-bf58-266a545531c5" x="495.44" y="470.66" width="35.26" height="10.94" rx="1"/></g></g><path class="ea7fc2ca-0d6c-499c-bf58-266a545531c5" d="M194.61,756.44c0,1.29-.8,1.93-2.42,1.93H179.48a4.78,4.78,0,0,1-3-.72,6.23,6.23,0,0,1-1.64-2.91l-3.39-9.56H141.83l-3.39,9.56a6.32,6.32,0,0,1-1.63,2.91,4.84,4.84,0,0,1-3,.72H121.13c-1.62,0-2.42-.64-2.42-1.93a3.28,3.28,0,0,1,.36-1.46L146,682.47a6.36,6.36,0,0,1,1.87-2.85,4.9,4.9,0,0,1,3.09-.91h11.62a4.64,4.64,0,0,1,3,.91,7.83,7.83,0,0,1,1.94,2.85L194.25,755A3.28,3.28,0,0,1,194.61,756.44Zm-37.89-55-9.08,26.76H165.8Z"/><path class="ea7fc2ca-0d6c-499c-bf58-266a545531c5" d="M267.25,679.5a3.59,3.59,0,0,1,.85,2.72V734q0,9-4.78,14.83a27.83,27.83,0,0,1-12.11,8.6A43.37,43.37,0,0,1,236,760.19a42.83,42.83,0,0,1-15.13-2.72,27.82,27.82,0,0,1-12-8.6Q204.06,743,204.06,734V682.22a3.63,3.63,0,0,1,.84-2.72,3.87,3.87,0,0,1,2.67-.79h12a3.87,3.87,0,0,1,2.67.79,3.63,3.63,0,0,1,.84,2.72v49.16q0,5.68,3.46,8.83c2.3,2.11,5.46,3.15,9.5,3.15s7.22-1,9.56-3.15,3.51-5,3.51-8.83V682.22a3.63,3.63,0,0,1,.85-2.72,3.83,3.83,0,0,1,2.66-.79h12A3.83,3.83,0,0,1,267.25,679.5Z"/><path class="ea7fc2ca-0d6c-499c-bf58-266a545531c5" d="M341.65,679.56a3.84,3.84,0,0,1,.78,2.66v10a3.87,3.87,0,0,1-.78,2.67,3.65,3.65,0,0,1-2.73.84H320.4v59.08a3.6,3.6,0,0,1-.85,2.73,3.83,3.83,0,0,1-2.66.78h-12a3.83,3.83,0,0,1-2.66-.78,3.6,3.6,0,0,1-.85-2.73V695.78H282.75a3.61,3.61,0,0,1-2.72-.84,3.82,3.82,0,0,1-.79-2.67v-10a3.79,3.79,0,0,1,.79-2.66,3.61,3.61,0,0,1,2.72-.85h56.17A3.65,3.65,0,0,1,341.65,679.56Z"/><path class="ea7fc2ca-0d6c-499c-bf58-266a545531c5" d="M418.7,679.5a3.59,3.59,0,0,1,.85,2.72v72.64a3.6,3.6,0,0,1-.85,2.73,3.83,3.83,0,0,1-2.66.78h-12a3.85,3.85,0,0,1-2.67-.78,3.64,3.64,0,0,1-.85-2.73V727.5h-27v27.36a3.61,3.61,0,0,1-.85,2.79,4.06,4.06,0,0,1-2.66.72h-12a3.83,3.83,0,0,1-2.66-.78,3.6,3.6,0,0,1-.85-2.73V682.22a3.59,3.59,0,0,1,.85-2.72,3.83,3.83,0,0,1,2.66-.79h12a4.06,4.06,0,0,1,2.66.73,3.59,3.59,0,0,1,.85,2.78v27.37h27V682.22a3.63,3.63,0,0,1,.85-2.72,3.85,3.85,0,0,1,2.67-.79h12A3.83,3.83,0,0,1,418.7,679.5Z"/><path class="b49ad275-52ea-4ac2-8442-8bcb1ed1e710" d="M511.62,679.44a3.84,3.84,0,0,1,.79,2.66v72.76a3.64,3.64,0,0,1-.85,2.73,3.84,3.84,0,0,1-2.66.78H497.27a3.83,3.83,0,0,1-2.66-.78,3.64,3.64,0,0,1-.85-2.73v-41L481.66,735q-1.57,2.54-3.51,2.54h-6.06a2.57,2.57,0,0,1-1.93-.73A12,12,0,0,1,468.7,735l-12.22-21.19v41a3.64,3.64,0,0,1-.85,2.73,3.85,3.85,0,0,1-2.67.78H441a3.83,3.83,0,0,1-2.66-.78,3.6,3.6,0,0,1-.85-2.73V682.1a3.79,3.79,0,0,1,.79-2.66,3.61,3.61,0,0,1,2.72-.85h12a5,5,0,0,1,3.21.85,6.29,6.29,0,0,1,1.58,1.88c.36.68.62,1.15.78,1.39l16.59,29.78,16.71-29.78a14.86,14.86,0,0,0,.78-1.51,4.45,4.45,0,0,1,1.7-1.88,5.39,5.39,0,0,1,3-.73H508.9A3.63,3.63,0,0,1,511.62,679.44Z"/><path class="b49ad275-52ea-4ac2-8442-8bcb1ed1e710" d="M599.21,756.44c0,1.29-.81,1.93-2.42,1.93H584.08a4.84,4.84,0,0,1-3-.72,6.32,6.32,0,0,1-1.63-2.91l-3.39-9.56H546.43L543,754.74a6.32,6.32,0,0,1-1.64,2.91,4.78,4.78,0,0,1-3,.72H525.73c-1.62,0-2.43-.64-2.43-1.93a3.29,3.29,0,0,1,.37-1.46l26.87-72.51a6.45,6.45,0,0,1,1.88-2.85,4.9,4.9,0,0,1,3.09-.91h11.62a4.64,4.64,0,0,1,3,.91,7.7,7.7,0,0,1,1.93,2.85L598.85,755A3.28,3.28,0,0,1,599.21,756.44Zm-37.89-55-9.08,26.76H570.4Z"/><path class="b49ad275-52ea-4ac2-8442-8bcb1ed1e710" d="M673.42,679.5a3.59,3.59,0,0,1,.85,2.72v72.64a3.82,3.82,0,0,1-.79,2.67,3.61,3.61,0,0,1-2.72.84h-11a4.27,4.27,0,0,1-3-.84,18.92,18.92,0,0,1-2.48-3.27l-25.67-41.53v42.13a3.6,3.6,0,0,1-.85,2.73,3.83,3.83,0,0,1-2.66.78h-12a3.83,3.83,0,0,1-2.66-.78,3.6,3.6,0,0,1-.85-2.73V682.22a3.79,3.79,0,0,1,.79-2.66,3.61,3.61,0,0,1,2.72-.85h11.38a4.3,4.3,0,0,1,3,.85,20,20,0,0,1,2.48,3.27l25.67,41.4v-42a3.63,3.63,0,0,1,.84-2.72,3.87,3.87,0,0,1,2.67-.79h11.62A3.83,3.83,0,0,1,673.42,679.5Z"/></g></svg>