<svg xmlns="http://www.w3.org/2000/svg" viewBox="0 0 450 450"><defs><style>.cls-1{fill:#f9f9f9;}.cls-2{fill:#f66;}.cls-3{fill:#64e9f5;}.cls-4{fill:#e65c5c;}.cls-5{fill:#66f7ff;}</style></defs><title>logo_夏木樂_白字</title><g id="圖層_1" data-name="圖層 1"><path class="cls-1" d="M157.4,362.74c-.34,3.72-3,5-6.94,4.65-9.14-.93-19.22-2.62-28.36-6.18-9.23,3.81-20.74,6.18-35.38,7.37-2.12.08-3.3-.68-3.47-2.29s.59-2.71,2.71-3a116.72,116.72,0,0,0,26.74-6.69A40.49,40.49,0,0,1,104,349.7a48.73,48.73,0,0,1-14.23,7.7c-1.52.68-2.79.26-3.38-1.1s-.34-2.54,1.1-3.47a45.13,45.13,0,0,0,16.42-16.76c.34-.5.59-1,.93-1.44h-6.6c-3.13,0-4.91-1.77-4.91-5V307.89c0-3.14,1.78-4.91,4.91-4.91h15.15c.42-1.53.76-3,1.1-4.32H87.14A2.83,2.83,0,0,1,84,295.61a2.89,2.89,0,0,1,3.13-3.13h65.77a2.83,2.83,0,0,1,3.05,3.13,2.77,2.77,0,0,1-3.05,3.05H125.06a39.28,39.28,0,0,1-3.89,4.32h21c3.22,0,5,1.77,5,4.91v21.75c0,3.22-1.78,5-5,5H114.23a4.18,4.18,0,0,1,.08,3.64h22.26c7,0,9.74,5.17,4.91,10.08a55.58,55.58,0,0,1-8.38,7c5.76.85,12,1.36,18.63,1.7C156,357.32,157.74,359.44,157.4,362.74Zm-53.67-51h32.93v-2.2a1,1,0,0,0-1-1H104.75a1,1,0,0,0-1,1Zm0,8.55h32.93V317H103.73Zm1,8.63h30.89a1,1,0,0,0,1-1v-2.37H103.73V328A1,1,0,0,0,104.75,329Zm16.5,23.7a41.75,41.75,0,0,0,9.57-7.19c.59-.68.25-1.44-.59-1.44H110.16c-.67.76-1.43,1.52-2.11,2.2A50.19,50.19,0,0,0,121.25,352.66Z"/><path class="cls-1" d="M260.53,356.39c-2.62,3.3-6.09,3.72-9.56.68-8.05-7.11-16.43-19.9-21.17-32v38.09c0,3.73-2,5.67-5.75,5.67s-5.76-1.94-5.76-5.67V328.71c-5.92,11-16.25,23.87-27.93,30.47-1.7,1-3.05.59-3.9-.76s-.67-2.62.85-3.89c12-10,22.09-25.23,26.92-40.38H192.47a3.68,3.68,0,0,1,0-7.36h25.82V294.17c0-3.72,2-5.5,5.76-5.5s5.75,1.78,5.75,5.5v12.62H256a3.33,3.33,0,0,1,3.64,3.63c0,2.38-1.35,3.73-3.64,3.73H231.58c5.76,12.44,16.08,24.29,27.17,32.84C262.22,349.62,263.32,353,260.53,356.39Z"/><path class="cls-1" d="M368,362c-1.44,3.21-4.91,4.06-8.29,2.62-9.74-4.15-18.2-10-23.7-16.93v16c0,3.55-2,5.33-5.51,5.33s-5.58-1.78-5.58-5.33V348.6C317.84,356,306.41,362,296.25,365c-1.78.51-3,.26-3.64-1.27s-.08-2.87,1.52-3.64c10-4.31,17.78-8.88,24.64-16.42H297.94c-1.94,0-3-1.18-3-3.21s1.1-3.31,3-3.31h27v-1.86c0-2.28.93-3.72,2.79-4.4h-4.49a4.63,4.63,0,0,1-3.64-1.35c-.08,1.69-1,2.62-2.87,3-2.46.51-4-.51-4.32-3.21-.09-.34-.09-.77-.17-1.1a55,55,0,0,1-12.7,4.4c-2.88.59-5.08-.51-5.5-3.39s.93-4.82,4.15-5a3.84,3.84,0,0,0,1-.09,89,89,0,0,0,5.93-9.9,50,50,0,0,1-6.1,1.61c-2.7.5-4.82-.51-5.07-3.39-.26-2.71,1.1-4.06,3.72-4.32a116.54,116.54,0,0,0,3.72-14.64c.68-3.3,2.71-4.23,5.59-3.64s3.73,3,2.54,6.18A69.31,69.31,0,0,1,303.78,308c1.53-.17,3.05-.25,4.58-.42.67-1.61,1.43-3.3,2-4.91,1.1-2.8,3.3-3.47,5.92-2.46a3.67,3.67,0,0,1,2,1.86c.26-2.79,2-4.31,4.91-4.31h3.05c.25-2,.42-4,.68-5.76.34-3.05,2.11-4.06,5.08-3.72s4.14,2.45,3.38,4.91a23.49,23.49,0,0,1-2.28,4.57h4.06c3.22,0,5,1.78,5,4.91v6.09a4.68,4.68,0,0,1,1.7-.51,104.53,104.53,0,0,0,3.55-14.81c.51-3.3,2.71-4.15,5.51-3.55s3.72,2.79,2.7,5.75a61.86,61.86,0,0,1-6,12.44c1.61-.08,3.14-.16,4.66-.33l2-4.74c1.1-3,3.39-3.81,6-2.71s3.22,3.81,1.86,6.43a80.27,80.27,0,0,1-12.1,16.51c2-.09,4-.34,5.84-.6-.25-1.1-.42-2.2-.68-3.21a2.37,2.37,0,0,1,1.61-3c1.27-.42,2.2.08,3.05,1.44a40.71,40.71,0,0,1,4.48,9.9c.68,2.37,0,4.15-2.54,4.83s-4.23-.34-4.74-3.22c-.08-.68-.25-1.27-.33-1.86a59.48,59.48,0,0,1-12.36,4.15c-2.54.5-4.4-.43-5-2.63a4.75,4.75,0,0,1-4.23,2h-4c1.86.68,2.8,2.12,2.8,4.4v1.86h27.25c1.95,0,3.13,1.19,3.13,3.31a2.91,2.91,0,0,1-3.13,3.21H340.18c6.44,5,15.07,8.21,24.3,10.67C368.2,355.37,369.64,358.42,368,362Zm-49.69-37.84V305.35a4.12,4.12,0,0,1-.42,1.1,77.85,77.85,0,0,1-12.19,17.26c1.95-.16,3.81-.5,5.67-.76-.17-1.1-.42-2.2-.59-3.21-.25-1.61.25-2.63,1.61-3.05a2.47,2.47,0,0,1,3.13,1.44A32.48,32.48,0,0,1,318.34,324.14Zm15-20.74h-6.1a1,1,0,0,0-1,1v6.52h8.12v-6.52A1,1,0,0,0,333.33,303.4Zm-6.1,21.75h6.1a1,1,0,0,0,1-1V316.6h-8.12v7.54A1,1,0,0,0,327.23,325.15Zm15-10.24v9.65a4.32,4.32,0,0,1,3-1h.59c1.86-3,3.72-6.18,5.5-9.57a38.82,38.82,0,0,1-5.42,1.61A4,4,0,0,1,342.21,314.91Z"/><path class="cls-2" d="M291,125.54c-7.81,4.55-23.63,13.56-31.47,18.08-8.65,5-34.48,19.89-34.48,19.89L189,184.09l-.06,0-1.62-1c-.55-.33-1.1-.68-1.64-1s-1.08-.71-1.61-1.08-.76-.52-1.13-.79a69.46,69.46,0,0,1-28.72-51.05c0-.46-.06-.91-.08-1.37s0-.9-.05-1.36a4.05,4.05,0,0,1,2-3.66L223,81.52a4.12,4.12,0,0,1,4,0L291,118.61C293.41,120.13,294.06,123.73,291,125.54Z"/><path class="cls-3" d="M295.46,202.49v.2a3.77,3.77,0,0,1-2,3.47L227,247.48a4,4,0,0,1-4,0l-66-37.95a3.82,3.82,0,0,1,0-6.9l32-18.54L225,163.51l34.48-19.89c2.1,1.22,4.21,2.5,6.27,3.84a68.1,68.1,0,0,1,28.08,41,85.32,85.32,0,0,1,1.61,13.9A1,1,0,0,1,295.46,202.49Z"/><path class="cls-4" d="M225,163.51,189,184.09l-.06,0-1.62-1c-.55-.33-1.1-.68-1.64-1s-1.08-.71-1.61-1.08-.76-.52-1.13-.79l-1.48-1.09a69.43,69.43,0,0,1-27.15-49,2.46,2.46,0,0,1,0-.26c-.06-.77-.11-1.56-.15-2.35a2,2,0,0,1,3-1.82l31.92,17Z"/><path class="cls-5" d="M295.46,202.63v.06a3.77,3.77,0,0,1-2,3.47L227,247.48l0,0a1.37,1.37,0,0,1-2-1.24V163.51l34.48-19.89c2.1,1.22,4.21,2.5,6.27,3.84a68.1,68.1,0,0,1,28.08,41,85.32,85.32,0,0,1,1.61,13.9C295.46,202.42,295.46,202.53,295.46,202.63Z"/></g></svg>